<svg width="49" height="55" viewBox="0 0 49 55" fill="none" xmlns="http://www.w3.org/2000/svg">
<path d="M48.875 39.6876C48.875 40.7168 48.3063 41.6105 47.4396 42.0709L26.0438 54.0959C25.6104 54.4209 25.0688 54.5834 24.5 54.5834C23.9313 54.5834 23.3896 54.4209 22.9563 54.0959L1.56043 42.0709C1.12623 41.8427 0.762856 41.4999 0.509792 41.0798C0.256728 40.6596 0.123648 40.1781 0.12501 39.6876V15.3126C0.12501 14.2834 0.69376 13.3897 1.56043 12.9292L22.9563 0.904248C23.3896 0.579248 23.9313 0.416748 24.5 0.416748C25.0688 0.416748 25.6104 0.579248 26.0438 0.904248L47.4396 12.9292C48.3063 13.3897 48.875 14.2834 48.875 15.3126V39.6876ZM5.54168 19.3751V35.6251H8.92709V30.2084H10.9583C12.3949 30.2084 13.7727 29.6377 14.7885 28.6219C15.8043 27.6061 16.375 26.2283 16.375 24.7917C16.375 23.3552 15.8043 21.9774 14.7885 20.9616C13.7727 19.9458 12.3949 19.3751 10.9583 19.3751H5.54168ZM8.92709 27.5001V22.0834H10.2813C10.9996 22.0834 11.6884 22.3688 12.1963 22.8767C12.7043 23.3846 12.9896 24.0735 12.9896 24.7917C12.9896 25.51 12.7043 26.1989 12.1963 26.7068C11.6884 27.2147 10.9996 27.5001 10.2813 27.5001H8.92709ZM18.4063 19.3751V35.6251H21.7917V30.2084H23.8229L25.6104 35.6251H29.1854L27.0458 29.1522C28.3729 28.1772 29.2396 26.5792 29.2396 24.7917C29.2396 23.3552 28.6689 21.9774 27.6531 20.9616C26.6373 19.9458 25.2595 19.3751 23.8229 19.3751H18.4063M21.7917 27.5001V22.0834H23.1458C23.8641 22.0834 24.553 22.3688 25.0609 22.8767C25.5688 23.3846 25.8542 24.0735 25.8542 24.7917C25.8542 25.51 25.5688 26.1989 25.0609 26.7068C24.553 27.2147 23.8641 27.5001 23.1458 27.5001H21.7917ZM38.0417 19.3751C34.3042 19.3751 31.2708 23.0042 31.2708 27.5001C31.2708 31.9959 34.3042 35.6251 38.0417 35.6251C41.7792 35.6251 44.8125 31.9959 44.8125 27.5001C44.8125 23.0042 41.7792 19.3751 38.0417 19.3751ZM38.0417 22.7605C40.1 22.7605 41.7792 24.873 41.7792 27.5001C41.7792 30.1272 40.1 32.2397 38.0417 32.2397C35.9833 32.2397 34.3313 30.1272 34.3313 27.5001C34.3313 24.873 35.9833 22.7605 38.0417 22.7605Z" fill="#699BF7"/>
</svg>
